<?xml version="1.0" encoding="UTF-8"?>
<svg width="1200pt" height="1200pt" version="1.1" viewBox="0 0 1200 1200" xmlns="http://www.w3.org/2000/svg">
 <path d="m536.1 0h3c1 1.8008 1.6992 3.8008 1.7969 5.8984 0.90234 12 2.9023 24 2.4023 36.102-0.10156 4.3984 0.80078 8.6992 0.80078 13-0.80078 11.301-0.10156 22.699-0.80078 34 0.097657 14.699 0.097657 29.301 0 44 0 8.8008 0.19922 17.602-0.80078 26.301-0.60156 8.6992 0.19922 17.5-0.80078 26.199-0.80078 6.3008 1.1016 12.602-0.097657 19-1.1016 6.5 0.29688 13 1.2969 19.398 0.80078 3.6016 1.3008 7.5 3.7031 10.402 2.3984 1.5 5.5 0 7.8984-0.90234 4.3008-2.7969 5.3984-8.5 5.5-13.398 0.5-20.301 1.3008-40.699 1.3984-61.102 1-12.598 0.30078-25.199 1.4023-37.898 0.59766-21.398 2-42.699 2.5977-64.102 1.1016-19 0.60156-38.598 6.6016-56.898h4.6992c0.80078 6.8008 2.9023 13.301 3.9023 20-0.20312 12 1.0977 23.898 1 35.898 0.59766 8.2031 1.2969 16.402 1.0977 24.602 0.69922 4.6016-0.69922 9.1992 0 13.801 0.30078 3.3008-0.19922 6.5977 0.19922 9.8984 1.2031 10.5-0.5 21.199 1.1016 31.801 0.69922 4.1016-0.69922 8.1016-0.10156 12.199 1.2031 10.301-0.39844 20.699 0.90234 31 1.3984 10.902-0.40234 22 1.3008 32.801 0.79688 6.1992 0.39844 12.5 2.3984 18.398 1.3008 5.2031 10.199 6.9023 12.5 1.6016 3-5.1016 2.3984-11.301 2.6992-17 0-38-0.097657-76 0-114 0.60156-15.301 0-30.699 0.60156-46 0.30078-18.398-0.60156-37.398 5.8008-55h5.6992c2.3008 7.6992 2.3984 15.801 3.8008 23.699 1 8.6992 2.1992 17.5 2.7969 26.301-0.19922 9.8984-0.097657 19.801 0.10156 29.699 1 8.4023 0.5 16.902 1.6016 25.301-0.30078 8 1.5977 16 1.1992 24-0.19922 6.3984 1.3984 12.602 1.0977 19-0.5 8 0.30078 16 0.80078 24-0.30078 8.3984 1.4023 16.602 1.1016 25-0.19922 6 1.1992 12 1 18-0.10156 5.6992 0 11.801 2.8008 17 2.7969 4.8008 12 6.3008 14.297 0.30078 2.4023-5.1016 1.4023-11 1.1016-16.402-0.39844-10.699-0.39844-21.297-0.60156-31.898-1.1992-17.699-0.39844-35.301-1.5-52.898-0.69922-23-0.19922-46.102-0.59766-69.102-0.19922-12.699-0.10156-25.301-0.19922-38 0.19922-6.8984 0.097657-13.898 1.6992-20.602 0.30078-1.5977 1.6992-2.3984 2.8984-3.3984h1.8008c3.6992 3.6016 4.1016 9 5.3984 13.699 1.7031 6.5 1.8008 13.199 2.3008 19.902 3.1016 14.797 4.1992 29.898 7 44.797 6.5 41.402 14.902 82.402 21.301 123.8 3 17.402 4.5 35 6.3984 52.5 2 24.402 2.1016 49.301-3.0977 73.402-0.90234 4.5-3.8008 8.2969-4.6016 12.898-0.69922 5.6992-5.1992 9.8984-7.8008 14.801-5.8984 7.8008-10.797 16.398-17.797 23.199-4.4023 4.1016-8 9-12.902 12.5-4 2.8008-7.0977 6.6992-10.699 9.8984-6.6016 6-11.398 13.5-15.898 21.102-4.4023 8.6992-9.7031 17.398-10.5 27.398-1.6016 39-2.2031 78.203-0.5 117.3 2.1992 19.199 2.1992 38.602 3.5 57.902 1.5 23.297 2.1992 46.699 4.5 70 1.0977 18.398 4.0977 36.598 5.7969 54.898 0.5 5.8984 1.9023 11.602 2.9023 17.5 1.6992 21.199 5.1992 42.301 7 63.602 2 13 3.3008 26.199 5 39.297 2 22.801 4 45.5 7 68.102 1.3984 18.801 4.0977 37.602 5.1992 56.5 2.1992 13.602 2.5 27.301 3.8008 41 0.89844 16.102 2.1992 32.199 2.5 48.301 1.0977 11.598 0.097657 23.199 0.80078 34.801 0.59766 13.398-0.60156 26.797-3.7031 39.898-3.1992 13.5-11 26.398-23 33.898-5.2969 3.5-11.699 4.5-17.5 7.1016h-28.699c-1.8984-1.1016-3.8008-2.1992-6-2.8008-6.5977-2.0977-12.699-5.5-18.098-9.8008-8.7031-7.1992-14-17.5-17.801-27.898-2.9023-14.301-4.1016-28.898-4.1016-43.5 0-11.301-0.30078-22.699 0.5-34 0.10156-18.102 2.5-36.102 4-54.102 2.8008-27.297 5.1016-54.598 8.1016-81.797 8.5-78.602 15.5-157.4 23-236.1 0.80078-9.6992 2.0977-19.398 2.0977-29.102 1.1016-18 1.7031-36 2.8008-53.898 0-10.301 1.3008-20.602 1.3008-30.898 0.80078-7.1016 0.60156-14.301 1.1992-21.5 1.4023-8.1016 0.80078-16.402 0.90234-24.602 0.097657-27 0-54 0.19922-81 0.097657-5.1016-0.10156-10.301-1.4023-15.199-2.8984-14.102-6.0977-29.199-16.199-40-7.6992-8-15.199-16.102-23.098-23.902-22.301-21-38.203-48.797-44.402-78.797-3.1992-14.5-3.6992-29.402-3.3984-44.102 1.5-37.898 8.3008-75.199 14.199-112.5 4.1016-25.301 8-50.602 12.102-75.898 3.6992-24.301 8.3984-48.5 12.398-72.703 0.19922-2.2969 1.3984-4.3984 3.1016-5.8984z" fill="#fff" stroke="#fff" stroke-width=".09375"/>
</svg>
